<?xml version="1.0" encoding="utf-8"?>
<!-- blue #0089fa; red #ff002b; yellow #ffa900; green #00a753; -->
<!-- blue #0099ff; red #ff0033; yellow #ff9900; green #009966; -->
<svg version="1.1" xmlns="http://www.w3.org/2000/svg" xmlns:xlink="http://www.w3.org/1999/xlink" x="0px" y="0px" width="192px" height="192px" viewBox="0 0 192 192" enable-background="new 0 0 192 192" xml:space="preserve">
<g id="industry" fill="#ff9900">
	<path fill="#ff9900" d="M19.992,163.383l0.002-4.75h2.375l0.047-41.73l33.372-15.861l4.582-54.039h23.751l4.437,61.041
			l14.699-6.984l4.615-73.057L131.447,28l4.676,80.014l33.452-15.901v66.847l2.425-0.326v4.75H19.992z M84.122,158.633h80.753
			v-4.752H84.122V158.633z M41.37,158.633h38.001v-14.252H41.37V158.633z M27.12,158.633h9.5v-4.752h-9.5V158.633z M79.372,51.753
			h-14.25l-0.667,5.6h15.493L79.372,51.753z M80.289,61.773H64.05l-0.423,4.612h17.022L80.289,61.773z M80.994,70.806H63.223
			L60.67,98.721l13.899-6.608v22.581l9.493-4.512L80.994,70.806z M126.873,32.752h-14.25v4.75h14.25V32.752z M127.577,41.452
			h-15.738l-0.306,4.613h16.312L127.577,41.452L127.577,41.452z M128.103,50.484h-16.859L108.07,98.77l14.003-6.657v22.581
			l9.517-4.525L128.103,50.484L128.103,50.484z M117.423,121.846v-22.58l-47.504,22.58v-22.58l-42.852,20.371l0.052,29.494h9.5v-9.5
			h47.501v9.5h80.753l0.05-49.865L117.423,121.846L117.423,121.846z M150.624,132.506h4.751v11.875h-4.751V132.506z
			 M136.373,132.506h4.751v11.875h-4.751V132.506z M122.123,132.506h4.75v11.875h-4.75V132.506z M107.873,132.506h4.75v11.875h-4.75
			V132.506z M93.622,132.506h4.75v11.875h-4.75V132.506z M36.62,130.131h47.501v4.75H36.62V130.131z"/>
</g>
</svg>