<?xml version="1.0" encoding="utf-8"?>
<!-- blue #0089fa; red #ff002b; yellow #ffa900; green #00a753; -->
<!-- blue #0099ff; red #ff0033; yellow #ff9900; green #009966; -->
<svg version="1.1" xmlns="http://www.w3.org/2000/svg" xmlns:xlink="http://www.w3.org/1999/xlink" x="0px" y="0px" width="192px" height="192px" viewBox="0 0 192 192" enable-background="new 0 0 192 192" xml:space="preserve">
<g id="automation" fill="#660000">
	<path fill="#660000" d="M159.001,28.007H32.771c-2.919,0-5.294,2.376-5.294,5.295v98.772c0,2.919,2.375,5.295,5.294,5.295h29.163
			v18.772c0,4.333,3.525,7.858,7.857,7.858H122.2c4.332,0,7.857-3.525,7.857-7.858v-18.772h28.943c2.92,0,5.296-2.376,5.296-5.295
			V33.302C164.297,30.383,161.921,28.007,159.001,28.007z M125.521,156.142c0,1.832-1.489,3.32-3.321,3.32H69.792
			c-1.831,0-3.32-1.489-3.32-3.32v-40.436c0-1.832,1.489-3.32,3.32-3.32H122.2c1.833,0,3.321,1.489,3.321,3.32V156.142z
			 M79.458,107.847c0.684-8.523,7.84-15.255,16.54-15.255s15.854,6.731,16.537,15.255H79.458z M159.76,132.075
			c0,0.417-0.341,0.754-0.759,0.754h-28.943v-17.123c0-4.334-3.525-7.859-7.857-7.859h-5.116
			c-0.693-11.029-9.884-19.793-21.086-19.793c-11.204,0-20.396,8.764-21.088,19.793h-5.117c-4.333,0-7.857,3.525-7.857,7.859v17.123
			H32.771c-0.417,0-0.755-0.337-0.755-0.754V33.302c0-0.417,0.339-0.756,0.755-0.756h126.229c0.418,0,0.759,0.339,0.759,0.756
			V132.075z M66.595,45.479H46.253c-2.837,0-5.144,2.307-5.144,5.145v20.342c0,2.835,2.307,5.145,5.144,5.145h20.342
			c2.837,0,5.145-2.309,5.145-5.145V50.624C71.74,47.786,69.432,45.479,66.595,45.479z M67.201,70.966
			c0,0.334-0.271,0.606-0.606,0.606H46.253c-0.334,0-0.607-0.271-0.607-0.606V50.624c0-0.335,0.272-0.608,0.607-0.608h20.342
			c0.334,0,0.606,0.273,0.606,0.608V70.966z M106.058,45.479H85.716c-2.836,0-5.145,2.307-5.145,5.145v20.342
			c0,2.835,2.308,5.145,5.145,5.145h20.342c2.837,0,5.145-2.309,5.145-5.145V50.624C111.202,47.786,108.895,45.479,106.058,45.479z
			 M106.666,70.966c0,0.334-0.272,0.606-0.608,0.606H85.716c-0.333,0-0.605-0.271-0.605-0.606V50.624
			c0-0.335,0.272-0.608,0.605-0.608h20.342c0.336,0,0.608,0.273,0.608,0.608V70.966z M145.521,45.479h-20.343
			c-2.836,0-5.146,2.307-5.146,5.145v20.342c0,2.835,2.31,5.145,5.146,5.145h20.343c2.836,0,5.145-2.309,5.145-5.145V50.624
			C150.666,47.786,148.357,45.479,145.521,45.479z M146.128,70.966c0,0.334-0.273,0.606-0.606,0.606h-20.343
			c-0.335,0-0.606-0.271-0.606-0.606V50.624c0-0.335,0.271-0.608,0.606-0.608h20.343c0.333,0,0.606,0.273,0.606,0.608V70.966z
			 M113.233,129.252h-0.186c-1.79,0-3.245-1.457-3.245-3.246c0-0.393,0.175-0.952,0.289-1.217c0.685-1.562,0.15-3.47-1.246-4.443
			l-0.043-0.032c-0.046-0.03-0.09-0.06-0.134-0.084l-4.577-2.542c-0.041-0.023-0.081-0.043-0.124-0.06l-0.056-0.028
			c-0.463-0.201-0.964-0.302-1.486-0.302c-1.069,0-2.091,0.423-2.796,1.154c-0.653,0.676-1.98,1.614-2.655,1.614
			c-0.683,0-2.018-0.959-2.67-1.642c-0.711-0.75-1.739-1.181-2.821-1.181c-0.515,0-1.006,0.099-1.46,0.292l-0.049,0.021
			c-0.046,0.02-0.092,0.041-0.137,0.066l-4.736,2.6c-0.047,0.026-0.091,0.056-0.134,0.085l-0.049,0.032
			c-1.403,0.977-1.94,2.885-1.253,4.448c0.113,0.264,0.29,0.824,0.29,1.217c0,1.789-1.457,3.246-3.246,3.246h-0.144
			c-1.506-0.029-2.754,1.159-3.09,2.931c-0.042,0.225-0.409,2.22-0.409,3.867c0,1.649,0.367,3.645,0.409,3.87
			c0.333,1.753,1.556,2.931,3.045,2.931c0.016,0,0.031,0,0.046,0h0.142c1.79,0,3.246,1.455,3.246,3.246
			c0,0.392-0.177,0.952-0.29,1.216c-0.686,1.561-0.152,3.468,1.248,4.449l0.045,0.031c0.041,0.026,0.082,0.053,0.125,0.076
			l4.487,2.512c0.042,0.024,0.086,0.043,0.131,0.064l0.048,0.022c0.462,0.203,0.963,0.305,1.489,0.305
			c1.075,0,2.133-0.451,2.831-1.214c0.629-0.683,2.032-1.715,2.713-1.715c0.701,0,2.065,1.023,2.73,1.752
			c0.698,0.771,1.764,1.231,2.85,1.232c0.001,0,0.001,0,0.001,0c0.515,0,1.009-0.101,1.465-0.295l0.048-0.021
			c0.045-0.021,0.089-0.041,0.135-0.066l4.65-2.572c0.046-0.023,0.093-0.054,0.134-0.081l0.046-0.032
			c1.4-0.979,1.936-2.884,1.25-4.443c-0.078-0.187-0.289-0.78-0.289-1.221c0-1.79,1.455-3.246,3.245-3.246l0.184,0.001
			c1.493,0,2.72-1.178,3.05-2.928c0.017-0.088,0.408-2.169,0.408-3.873c0-1.653-0.366-3.646-0.407-3.868
			C115.95,130.429,114.725,129.252,113.233,129.252z M113.31,139.356c-0.049,0.252-0.128,0.401-0.178,0.468h-0.084
			c-3.457,0-6.271,2.813-6.271,6.272c0,1.108,0.445,2.207,0.533,2.409c0.004,0.007,0.009,0.019,0.01,0.025
			c0.11,0.244,0.02,0.574-0.192,0.734l-4.514,2.495c-0.07,0.028-0.154,0.041-0.249,0.041c-0.235,0-0.479-0.096-0.613-0.242
			c-0.255-0.279-2.568-2.74-4.968-2.74c-2.431,0-4.836,2.581-4.938,2.693c-0.107,0.119-0.336,0.236-0.604,0.236
			c-0.099,0-0.183-0.017-0.256-0.047l-4.354-2.435c-0.213-0.16-0.3-0.493-0.193-0.735c0.021-0.051,0.545-1.235,0.545-2.436
			c0-3.459-2.814-6.272-6.271-6.272h-0.084c-0.05-0.066-0.129-0.217-0.176-0.468c-0.015-0.075-0.358-1.907-0.358-3.307
			c0-1.396,0.343-3.228,0.357-3.307c0.047-0.25,0.127-0.4,0.176-0.468h0.084c3.457,0,6.271-2.813,6.271-6.269
			c0-1.154-0.476-2.279-0.545-2.437l0,0c-0.107-0.243-0.019-0.573,0.194-0.731l4.595-2.525c0.073-0.03,0.162-0.045,0.258-0.045
			c0.276,0,0.514,0.119,0.629,0.242c0.253,0.264,2.534,2.579,4.862,2.579c2.307,0,4.576-2.271,4.831-2.535
			c0.11-0.115,0.346-0.231,0.62-0.231c0.101,0,0.189,0.015,0.26,0.044l4.44,2.468c0.213,0.159,0.304,0.492,0.194,0.734
			c-0.019,0.05-0.544,1.236-0.544,2.438c0,3.456,2.814,6.269,6.271,6.269h0.084c0.05,0.066,0.129,0.218,0.178,0.468
			c0.003,0.021,0.355,1.904,0.355,3.307C113.665,137.231,113.409,138.836,113.31,139.356z M96.798,128.178
			c-4.328,0-7.849,3.521-7.849,7.851c0,4.327,3.521,7.849,7.849,7.849c4.329,0,7.849-3.521,7.849-7.849
			C104.647,131.698,101.127,128.178,96.798,128.178z M96.798,140.85c-2.661,0-4.823-2.162-4.823-4.821
			c0-2.662,2.163-4.825,4.823-4.825c2.66,0,4.826,2.163,4.826,4.825C101.624,138.688,99.458,140.85,96.798,140.85z"/>
</g>
</svg>