<?xml version="1.0" encoding="utf-8"?>
<!-- blue #0089fa; red #ff002b; yellow #ffa900; green #00a753; bordo #660000 -->
<!-- blue #0099ff; red #ff0033; yellow #ff9900; green #009966; -->
<svg version="1.1" xmlns="http://www.w3.org/2000/svg" xmlns:xlink="http://www.w3.org/1999/xlink" x="0px" y="0px"
	 width="32px" height="32" viewBox="0 0 32 32" enable-background="new 0 0 32 32" xml:space="preserve">
	<title>right-quote-sign</title>
  <desc>roboticsautomation.cz</desc>
	<g stroke="none" fill="#660000" transform="translate(0, 0)">
		<path d="M30.3307595,0.00645240532 L20.3737482,0.00645240532 C19.4697564,0.00645240532 18.7360819,0.740126919 18.7360819,1.64411873 L18.7360819,11.60113 C18.7360819,12.5051546 19.4697564,13.2387963 20.3737482,13.2387963 L25.1393572,13.2387963 C25.0771259,15.8459939 24.4711894,17.932348 23.3248229,19.5012323 C22.4208311,20.7393081 21.0517748,21.7644872 19.2208311,22.5734944 C18.3790706,22.943607 18.0155087,23.9393081 18.4085486,24.7712753 L19.5876684,27.2605281 C19.967607,28.0596766 20.9076274,28.4101699 21.7199099,28.0596766 C23.8881801,27.1229314 25.7191238,25.937261 27.2126428,24.4961146 C29.0337605,22.737261 30.2816295,20.7524094 30.956348,18.5382845 C31.6310993,16.3241597 31.9684258,13.304303 31.9684258,9.47216377 L31.9684258,1.64411873 C31.9684258,0.740159672 31.2347185,0.00645240532 30.3307595,0.00645240532 Z" id="Path"></path>
		<path d="M3.50578506,28.0531259 C5.64785261,27.1196561 7.46893756,25.9340184 8.97231525,24.4961146 C10.8097769,22.737261 12.0642293,20.7589601 12.7389478,18.5612119 C13.4136663,16.3634637 13.7509928,13.333781 13.7509928,9.47216377 L13.7509928,1.64411873 C13.7509928,0.740126919 13.0173511,0.00645240532 12.1133265,0.00645240532 L2.15631525,0.00645240532 C1.25232344,0.00645240532 0.518648925,0.740126919 0.518648925,1.64411873 L0.518648925,11.60113 C0.518648925,12.5051546 1.25232344,13.2387963 2.15631525,13.2387963 L6.92192426,13.2387963 C6.85969294,15.8459939 6.2537564,17.932348 5.10738997,19.5012323 C4.20339816,20.7393081 2.83430911,21.7644872 1.00339816,22.5734944 C0.161637666,22.943607 -0.201924258,23.9393081 0.19111566,24.7712753 L1.36696008,27.2539775 C1.74693142,28.0531259 2.69350256,28.4068946 3.50578506,28.0531259 Z" id="Path"></path>
	</g>
	
</svg>