<?xml version="1.0" encoding="utf-8"?>
<!-- blue #0089fa; red #ff002b; yellow #ffa900; green #00a753; -->
<!-- blue #0099ff; red #ff0033; yellow #ff9900; green #009966; -->
<svg version="1.1" xmlns="http://www.w3.org/2000/svg" xmlns:xlink="http://www.w3.org/1999/xlink" x="0px" y="0px" width="192px" height="192px" viewBox="0 0 192 192" enable-background="new 0 0 192 192" xml:space="preserve">
<g id="robotics" fill="#660000">
<path fill="#660000" d="M168.43,150.601h-5.904v-9.321c0-1.717-1.392-3.108-3.107-3.108h-12.43c-1.717,0-3.107,1.392-3.107,3.108
			v9.321h-6.439c-1.514-10.526-10.588-18.645-21.527-18.645h-4.971c0,0-0.023-20.592-0.065-20.796
			c0.372-4.607-1.196-9.342-4.714-12.859L89.74,81.876l19.447-19.447c0.938-0.938,1.73-2.011,2.348-3.185h19.295
			c1.717,0,3.107-1.391,3.107-3.107V53.03h7.25v3.112c0,1.11,0.594,2.136,1.555,2.691l10.771,6.219
			c0.473,0.273,1.009,0.417,1.555,0.417c0.537,0,1.072-0.139,1.553-0.417l10.773-6.219c1.486-0.858,1.995-2.759,1.137-4.245
			c-0.857-1.486-2.759-1.996-4.244-1.138l-9.219,5.323l-7.666-4.426v-8.851l7.666-4.425l9.219,5.322
			c1.486,0.858,3.387,0.349,4.244-1.137c0.858-1.486,0.35-3.387-1.137-4.245l-10.773-6.219c-0.961-0.555-2.146-0.555-3.107,0
			l-10.771,6.219c-0.961,0.555-1.555,1.581-1.555,2.691v3.112h-7.25v-3.108c0-1.716-1.391-3.107-3.107-3.107h-26.702
			c-4.618-1.574-9.94-0.524-13.616,3.152L67.905,66.359c-8.368,1.481-14.745,8.802-14.745,17.589c0,5.878,2.854,11.102,7.249,14.359
			c0.561,0.813,1.194,1.573,1.892,2.272l17.018,17.018v14.359h-3.8c-10.938,0-20.013,8.117-21.526,18.644h-6.441v-9.321
			c0-1.717-1.39-3.108-3.107-3.108H32.016c-1.716,0-3.107,1.392-3.107,3.108v9.321h-5.904c-1.716,0-3.107,1.392-3.107,3.107
			c0,1.717,1.391,3.107,3.107,3.107H168.43c1.715,0,3.106-1.391,3.106-3.107C171.537,151.992,170.145,150.601,168.43,150.601
			L168.43,150.601z M127.723,46.815v6.215h-14.675c-0.011-2.142-0.538-4.282-1.581-6.215H127.723z M41.338,150.601h-6.215v-6.214
			h6.215V150.601L41.338,150.601z M94.905,48.147c1.321-1.32,3.076-2.048,4.944-2.048c1.867,0,3.623,0.727,4.943,2.048
			c2.727,2.726,2.727,7.161,0,9.888L86.957,75.872c-2.188-4.3-6.064-7.601-10.752-9.023L94.905,48.147z M59.374,83.948
			c0-6.425,5.227-11.653,11.652-11.653s11.653,5.228,11.653,11.653c0,6.425-5.228,11.652-11.653,11.652S59.374,90.373,59.374,83.948
			L59.374,83.948z M72.277,101.767c7.521-0.522,13.773-5.718,15.866-12.699l13.627,13.627c3.938,3.938,3.938,10.345,0,14.282
			c-1.907,1.907-4.443,2.958-7.141,2.958s-5.233-1.051-7.141-2.958L72.277,101.767L72.277,101.767z M104.729,122.646v9.312H85.534
			v-8.578c2.739,1.841,5.917,2.765,9.095,2.765C98.205,126.143,101.777,124.975,104.729,122.646L104.729,122.646z M60.294,150.601
			c1.444-7.083,7.722-12.43,15.225-12.43h40.395c7.504,0,13.781,5.347,15.226,12.43H60.294L60.294,150.601z M156.311,150.601h-6.215
			v-6.214h6.215V150.601z M71.026,80.84c-1.713,0-3.107,1.394-3.107,3.108c0,1.713,1.394,3.107,3.107,3.107s3.107-1.394,3.107-3.107
			C74.134,82.234,72.74,80.84,71.026,80.84z"/>
</g>
</svg>